#!OML:ASF H:\Terrain\Patient Classification 1\Animal2\Wednesday\Animal2.ASF
:FULLY-SPECIFIED
:DEGREES
195
root 18.2103 16.1744 -2.72531 -2.72029 -8.7243 -11.0923
lowerback 4.42609 -3.27327 1.85587
upperback -0.0178353 -4.1771 4.53558
thorax -2.29001 -2.09205 3.90273
lowerneck 0.476691 -2.15718 13.496
upperneck -11.0456 -4.01753 -15.6864
head -3.87699 -1.91431 -7.02248
rclavicle -4.93545e-014 2.85753e-014
rhumerus -38.0413 -3.93754 -75.4664
rradius 115.022
rwrist -36.3626
rhand -28.5993 -3.8934
rfingers 7.12502
rthumb -1.96468 -33.8641
lclavicle -4.93545e-014 2.85753e-014
lhumerus -40.0684 11.2341 74.1327
lradius 123.468
lwrist 40.8381
lhand 1.60146 37.8536
lfingers 7.12502
lthumb 27.1234 65.9249
rfemur -18.8269 23.2402 4.51234
rtibia 44.3469
rfoot -11.6607 5.85977
rtoes -1.66003
lfemur -10.5432 2.21857 -3.46689
ltibia 60.6887
lfoot -38.2155 3.63036
ltoes -23.1858
196
root 18.1678 16.1671 -2.71819 -2.8852 -9.0897 -10.9073
lowerback 4.68711 -2.93273 2.10308
upperback -0.00182949 -3.69996 4.30043
thorax -2.47592 -1.85507 3.50746
lowerneck 0.25323 -2.0204 13.8708
upperneck -10.811 -3.8217 -15.771
head -3.74709 -1.83872 -7.1234
rclavicle 7.26185e-015 -3.8763e-015
rhumerus -37.2505 -3.63843 -76.1031
rradius 115.288
rwrist -37.6032
rhand -29.2612 -3.97312
rfingers 7.12502
rthumb -2.60397 -33.937
lclavicle 7.26185e-015 -3.8763e-015
lhumerus -41.14 11.3764 73.0507
lradius 123.375
lwrist 40.9244
lhand 0.0861747 37.7031
lfingers 7.12502
lthumb 25.6729 65.992
rfemur -18.7954 23.1335 4.52467
rtibia 44.4712
rfoot -12.0321 5.68968
rtoes -5.4197
lfemur -10.123 2.24384 -3.54482
ltibia 60.6001
lfoot -38.166 3.46275
ltoes -22.1291
197
root 18.1309 16.1529 -2.71327 -3.04554 -9.42586 -10.5447
lowerback 4.71844 -2.55361 2.25463
upperback 0.191286 -3.19838 3.95988
thorax -2.34362 -1.60704 3.03099
lowerneck -0.0332248 -1.99365 14.579
upperneck -10.8129 -3.83012 -16.1338
head -3.71678 -1.86839 -7.37237
rclavicle 1.02436e-014 -2.20651e-014
rhumerus -36.1495 -3.449 -76.8138
rradius 115.493
rwrist -38.6679
rhand -30.7238 -3.56608
rfingers 7.12502
rthumb -4.01647 -33.508
lclavicle 1.02436e-014 -2.20651e-014
lhumerus -41.6901 11.58 72.0348
lradius 123.203
lwrist 41.3493
lhand -1.63018 37.399
lfingers 7.12502
lthumb 24.0281 65.915
rfemur -18.8124 22.9151 4.29359
rtibia 44.5876
rfoot -12.6693 5.38581
rtoes -11.013
lfemur -9.77335 2.26995 -3.85834
ltibia 60.4905
lfoot -38.1664 3.7018
ltoes -22.1407
198
root 18.0976 16.1476 -2.70132 -3.09486 -9.79746 -10.1421
lowerback 4.64039 -2.18019 2.38118
upperback 0.261233 -2.70517 3.65109
thorax -2.26543 -1.36227 2.60208
lowerneck 0.170158 -2.02521 14.9858
upperneck -10.9121 -3.8598 -16.3124
head -3.79585 -1.88281 -7.50336
rclavicle 2.65874e-015 1.59028e-014
rhumerus -35.3088 -3.22276 -77.5039
rradius 115.779
rwrist -39.4776
rhand -31.3074 -3.62333
rfingers 7.12502
rthumb -4.57993 -33.5538
lclavicle 2.65874e-015 1.59028e-014
lhumerus -42.5065 11.7743 71.089
lradius 123.152
lwrist 41.4024
lhand -3.17501 37.9298
lfingers 7.12502
lthumb 22.546 66.6334
rfemur -18.9563 22.8148 3.87494
rtibia 44.6592
rfoot -13.0106 5.73799
rtoes -10.8968
lfemur -9.49906 2.32041 -4.26093
ltibia 60.3509
lfoot -38.1865 3.90525
ltoes -21.9802
199
root 18.064 16.1532 -2.68859 -3.08582 -10.1595 -9.91585
lowerback 4.71461 -1.83313 2.6749
upperback 0.146072 -2.22119 3.42793
thorax -2.45862 -1.1243 2.18151
lowerneck 0.809523 -2.02578 15.0429
upperneck -11.2595 -3.79503 -16.1914
head -3.99829 -1.82915 -7.47679
rclavicle 3.08737e-014 -2.0276e-014
rhumerus -34.8705 -3.02734 -78.1376
rradius 116.112
rwrist -40.1504
rhand -31.3437 -3.84101
rfingers 7.12502
rthumb -4.61503 -33.7707
lclavicle 3.08737e-014 -2.0276e-014
lhumerus -43.6725 11.8657 70.1425
lradius 123.134
lwrist 41.161
lhand -4.63565 38.3494
lfingers 7.12502
lthumb 21.1434 67.2165
rfemur -19.1689 22.8273 3.63678
rtibia 44.7231
rfoot -13.1129 6.38215
rtoes -6.39795
lfemur -9.25664 2.35373 -4.4752
ltibia 60.2115
lfoot -38.0903 3.92834
ltoes -21.2395
200
root 18.0243 16.1576 -2.6826 -3.00713 -10.4824 -9.9183
lowerback 4.75787 -1.53521 3.12597
upperback 0.103086 -1.79706 3.30576
thorax -2.55243 -0.918614 1.77656
lowerneck 1.02307 -1.91029 15.0674
upperneck -11.4798 -3.62228 -16.1482
head -4.07154 -1.73673 -7.47737
rclavicle -6.23687e-015 -3.37934e-015
rhumerus -34.1908 -2.80565 -78.7474
rradius 116.276
rwrist -40.8777
rhand -31.7267 -3.49891
rfingers 7.12502
rthumb -4.98483 -33.4203
lclavicle -6.23687e-015 -3.37934e-015
lhumerus -44.6956 12.3386 69.0898
lradius 123.175
lwrist 41.4306
lhand -5.66142 38.656
lfingers 7.12502
lthumb 20.1578 67.6302
rfemur -19.3941 22.7793 3.73627
rtibia 44.8142
rfoot -13.4601 6.36814
rtoes -7.13614
lfemur -9.1195 2.40976 -4.37933
ltibia 60.0912
lfoot -38.0157 4.02131
ltoes -20.5617
201
root 17.9805 16.155 -2.68278 -2.93797 -10.7418 -9.81933
lowerback 4.8389 -1.26358 3.41612
upperback 0.075744 -1.41541 3.17682
thorax -2.63915 -0.732906 1.45721
lowerneck 0.869955 -1.76896 15.1751
upperneck -11.3575 -3.4416 -16.2706
head -3.98145 -1.6531 -7.54462
rclavicle -9.31803e-016 8.94531e-015
rhumerus -33.3812 -2.53282 -79.3704
rradius 116.421
rwrist -41.5537
rhand -31.8736 -3.65983
rfingers 7.12502
rthumb -5.12666 -33.5778
lclavicle -9.31803e-016 8.94531e-015
lhumerus -45.6201 13.0447 67.9075
lradius 123.271
lwrist 42.0917
lhand -6.19148 39.2466
lfingers 7.12502
lthumb 19.6483 68.2736
rfemur -19.5951 22.7653 3.71147
rtibia 44.9504
rfoot -13.598 6.55844
rtoes -7.17185
lfemur -9.04873 2.43226 -4.35884
ltibia 59.981
lfoot -37.99 4.22578
ltoes -20.3083
